<svg width="580" height="155" viewBox="0 0 580 155" fill="none" xmlns="http://www.w3.org/2000/svg">
<path d="M212.756 144.583C209.252 144.583 206.132 143.983 203.396 142.783C200.66 141.583 198.5 139.951 196.916 137.887C195.332 135.775 194.444 133.423 194.252 130.831H206.42C206.564 132.223 207.212 133.351 208.364 134.215C209.516 135.079 210.932 135.511 212.612 135.511C214.148 135.511 215.324 135.223 216.14 134.647C217.004 134.023 217.436 133.231 217.436 132.271C217.436 131.119 216.836 130.279 215.636 129.751C214.436 129.175 212.492 128.551 209.804 127.879C206.924 127.207 204.524 126.511 202.604 125.791C200.684 125.023 199.028 123.847 197.636 122.263C196.244 120.631 195.548 118.447 195.548 115.711C195.548 113.407 196.172 111.319 197.42 109.447C198.716 107.527 200.588 106.015 203.036 104.911C205.532 103.807 208.484 103.255 211.892 103.255C216.932 103.255 220.892 104.503 223.772 106.999C226.7 109.495 228.38 112.807 228.812 116.935H217.436C217.244 115.543 216.62 114.439 215.564 113.623C214.556 112.807 213.212 112.399 211.532 112.399C210.092 112.399 208.988 112.687 208.22 113.263C207.452 113.791 207.068 114.535 207.068 115.495C207.068 116.647 207.668 117.511 208.868 118.087C210.116 118.663 212.036 119.239 214.628 119.815C217.604 120.583 220.028 121.351 221.9 122.119C223.772 122.839 225.404 124.039 226.796 125.719C228.236 127.351 228.98 129.559 229.028 132.343C229.028 134.695 228.356 136.807 227.012 138.679C225.716 140.503 223.82 141.943 221.324 142.999C218.876 144.055 216.02 144.583 212.756 144.583ZM250.168 144.583C246.232 144.583 242.68 143.743 239.512 142.063C236.392 140.383 233.92 137.983 232.096 134.863C230.32 131.743 229.432 128.095 229.432 123.919C229.432 119.791 230.344 116.167 232.168 113.047C233.992 109.879 236.488 107.455 239.656 105.775C242.824 104.095 246.376 103.255 250.312 103.255C254.248 103.255 257.8 104.095 260.968 105.775C264.136 107.455 266.632 109.879 268.456 113.047C270.28 116.167 271.192 119.791 271.192 123.919C271.192 128.047 270.256 131.695 268.384 134.863C266.56 137.983 264.04 140.383 260.824 142.063C257.656 143.743 254.104 144.583 250.168 144.583ZM250.168 133.927C252.52 133.927 254.512 133.063 256.144 131.335C257.824 129.607 258.664 127.135 258.664 123.919C258.664 120.703 257.848 118.231 256.216 116.503C254.632 114.775 252.664 113.911 250.312 113.911C247.912 113.911 245.92 114.775 244.336 116.503C242.752 118.183 241.96 120.655 241.96 123.919C241.96 127.135 242.728 129.607 244.264 131.335C245.848 133.063 247.816 133.927 250.168 133.927ZM293.204 114.055H286.58V144.007H274.268V114.055H269.804V103.831H274.268V102.679C274.268 97.7348 275.684 93.9908 278.516 91.4468C281.348 88.8548 285.5 87.5588 290.972 87.5588C291.884 87.5588 292.556 87.5828 292.988 87.6308V98.0708C290.636 97.9268 288.98 98.2628 288.02 99.0788C287.06 99.8948 286.58 101.359 286.58 103.471V103.831H293.204V114.055ZM316.701 133.567V144.007H310.437C305.973 144.007 302.493 142.927 299.997 140.767C297.501 138.559 296.253 134.983 296.253 130.039V114.055H291.357V103.831H296.253V94.0388H308.565V103.831H316.629V114.055H308.565V130.183C308.565 131.383 308.853 132.247 309.429 132.775C310.005 133.303 310.965 133.567 312.309 133.567H316.701ZM376.551 103.831L365.679 144.007H352.071L345.735 117.943L339.183 144.007H325.647L314.703 103.831H327.015L332.703 132.559L339.471 103.831H352.503L359.343 132.415L364.959 103.831H376.551ZM374.118 123.847C374.118 119.719 374.886 116.095 376.422 112.975C378.006 109.855 380.142 107.455 382.83 105.775C385.518 104.095 388.518 103.255 391.83 103.255C394.662 103.255 397.134 103.831 399.246 104.983C401.406 106.135 403.062 107.647 404.214 109.519V103.831H416.526V144.007H404.214V138.319C403.014 140.191 401.334 141.703 399.174 142.855C397.062 144.007 394.59 144.583 391.758 144.583C388.494 144.583 385.518 143.743 382.83 142.063C380.142 140.335 378.006 137.911 376.422 134.791C374.886 131.623 374.118 127.975 374.118 123.847ZM404.214 123.919C404.214 120.847 403.35 118.423 401.622 116.647C399.942 114.871 397.878 113.983 395.43 113.983C392.982 113.983 390.894 114.871 389.166 116.647C387.486 118.375 386.646 120.775 386.646 123.847C386.646 126.919 387.486 129.367 389.166 131.191C390.894 132.967 392.982 133.855 395.43 133.855C397.878 133.855 399.942 132.967 401.622 131.191C403.35 129.415 404.214 126.991 404.214 123.919ZM433.066 110.527C434.506 108.319 436.306 106.591 438.466 105.343C440.626 104.047 443.026 103.399 445.666 103.399V116.431H442.282C439.21 116.431 436.906 117.103 435.37 118.447C433.834 119.743 433.066 122.047 433.066 125.359V144.007H420.754V103.831H433.066V110.527ZM484.743 123.271C484.743 124.423 484.671 125.623 484.527 126.871H456.663C456.855 129.367 457.647 131.287 459.039 132.631C460.479 133.927 462.231 134.575 464.295 134.575C467.367 134.575 469.503 133.279 470.703 130.687H483.807C483.135 133.327 481.911 135.703 480.135 137.815C478.407 139.927 476.223 141.583 473.583 142.783C470.943 143.983 467.991 144.583 464.727 144.583C460.791 144.583 457.287 143.743 454.215 142.063C451.143 140.383 448.743 137.983 447.015 134.863C445.287 131.743 444.423 128.095 444.423 123.919C444.423 119.743 445.263 116.095 446.943 112.975C448.671 109.855 451.071 107.455 454.143 105.775C457.215 104.095 460.743 103.255 464.727 103.255C468.615 103.255 472.071 104.071 475.095 105.703C478.119 107.335 480.471 109.663 482.151 112.687C483.879 115.711 484.743 119.239 484.743 123.271ZM472.143 120.031C472.143 117.919 471.423 116.239 469.983 114.991C468.543 113.743 466.743 113.119 464.583 113.119C462.519 113.119 460.767 113.719 459.327 114.919C457.935 116.119 457.071 117.823 456.735 120.031H472.143Z" fill="white"/>
<path fill-rule="evenodd" clip-rule="evenodd" d="M82.6927 0.000328824L82.6923 0L0 82.6088L17.7019 100.329L82.6744 35.4217L147.582 100.395L165.301 82.6927L100.394 17.7198L82.6927 0.000328824ZM100.937 111.587L83.2349 93.8668L47.2287 129.837L64.9304 147.557L83.2164 129.289L100.943 147.033L118.662 129.331L100.936 111.587L100.937 111.587ZM83.2585 46.6394L83.2587 46.6396L142.276 105.717L124.557 123.419L83.2407 82.0612L41.3169 123.943L23.6151 106.223L83.2585 46.6394Z" fill="url(#paint0_linear_45_36)"/>
<path d="M332.636 23.5748V37.3988H354.044V49.8788H332.636V65.0468H356.924V78.0068H316.22V66.6788H294.044L288.284 78.0068H270.524L304.988 10.6148H356.924V23.5748H332.636ZM316.22 54.1988V22.8068L300.38 54.1988H316.22Z" fill="white"/>
<path d="M385.731 78.6788C380.803 78.6788 376.387 77.8788 372.483 76.2788C368.579 74.6788 365.443 72.3108 363.075 69.1748C360.771 66.0388 359.555 62.2628 359.427 57.8468H376.899C377.155 60.3428 378.019 62.2628 379.491 63.6068C380.963 64.8868 382.883 65.5268 385.251 65.5268C387.683 65.5268 389.603 64.9828 391.011 63.8948C392.419 62.7428 393.123 61.1748 393.123 59.1908C393.123 57.5268 392.547 56.1508 391.395 55.0628C390.307 53.9748 388.931 53.0788 387.267 52.3748C385.667 51.6708 383.363 50.8708 380.355 49.9748C376.003 48.6308 372.451 47.2868 369.699 45.9428C366.947 44.5988 364.579 42.6148 362.595 39.9908C360.611 37.3668 359.619 33.9428 359.619 29.7188C359.619 23.4468 361.891 18.5508 366.435 15.0308C370.979 11.4468 376.899 9.65483 384.195 9.65483C391.619 9.65483 397.603 11.4468 402.147 15.0308C406.691 18.5508 409.123 23.4788 409.443 29.8148H391.683C391.555 27.6388 390.755 25.9428 389.283 24.7268C387.811 23.4468 385.923 22.8068 383.619 22.8068C381.635 22.8068 380.035 23.3508 378.819 24.4388C377.603 25.4628 376.995 26.9668 376.995 28.9508C376.995 31.1268 378.019 32.8228 380.067 34.0388C382.115 35.2548 385.315 36.5668 389.667 37.9748C394.019 39.4468 397.539 40.8548 400.227 42.1988C402.979 43.5428 405.347 45.4948 407.331 48.0548C409.315 50.6148 410.307 53.9108 410.307 57.9428C410.307 61.7828 409.315 65.2708 407.331 68.4068C405.411 71.5428 402.595 74.0388 398.883 75.8948C395.171 77.7508 390.787 78.6788 385.731 78.6788ZM462.65 10.6148V23.7668H444.794V78.0068H428.378V23.7668H410.522V10.6148H462.65ZM480.777 10.6148V50.9348C480.777 54.9668 481.769 58.0708 483.753 60.2468C485.737 62.4228 488.649 63.5108 492.489 63.5108C496.329 63.5108 499.273 62.4228 501.321 60.2468C503.369 58.0708 504.393 54.9668 504.393 50.9348V10.6148H520.809V50.8388C520.809 56.8548 519.529 61.9428 516.969 66.1028C514.409 70.2628 510.953 73.3988 506.601 75.5108C502.313 77.6228 497.513 78.6788 492.201 78.6788C486.889 78.6788 482.121 77.6548 477.897 75.6068C473.737 73.4948 470.441 70.3588 468.009 66.1988C465.577 61.9748 464.361 56.8548 464.361 50.8388V10.6148H480.777ZM550.48 78.6788C545.552 78.6788 541.136 77.8788 537.232 76.2788C533.328 74.6788 530.192 72.3108 527.824 69.1748C525.52 66.0388 524.304 62.2628 524.176 57.8468H541.648C541.904 60.3428 542.768 62.2628 544.24 63.6068C545.712 64.8868 547.632 65.5268 550 65.5268C552.432 65.5268 554.352 64.9828 555.76 63.8948C557.168 62.7428 557.872 61.1748 557.872 59.1908C557.872 57.5268 557.296 56.1508 556.144 55.0628C555.056 53.9748 553.68 53.0788 552.016 52.3748C550.416 51.6708 548.112 50.8708 545.104 49.9748C540.752 48.6308 537.2 47.2868 534.448 45.9428C531.696 44.5988 529.328 42.6148 527.344 39.9908C525.36 37.3668 524.368 33.9428 524.368 29.7188C524.368 23.4468 526.64 18.5508 531.184 15.0308C535.728 11.4468 541.648 9.65483 548.944 9.65483C556.368 9.65483 562.352 11.4468 566.896 15.0308C571.44 18.5508 573.872 23.4788 574.192 29.8148H556.432C556.304 27.6388 555.504 25.9428 554.032 24.7268C552.56 23.4468 550.672 22.8068 548.368 22.8068C546.384 22.8068 544.784 23.3508 543.568 24.4388C542.352 25.4628 541.744 26.9668 541.744 28.9508C541.744 31.1268 542.768 32.8228 544.816 34.0388C546.864 35.2548 550.064 36.5668 554.416 37.9748C558.768 39.4468 562.288 40.8548 564.976 42.1988C567.728 43.5428 570.096 45.4948 572.08 48.0548C574.064 50.6148 575.056 53.9108 575.056 57.9428C575.056 61.7828 574.064 65.2708 572.08 68.4068C570.16 71.5428 567.344 74.0388 563.632 75.8948C559.92 77.7508 555.536 78.6788 550.48 78.6788Z" fill="#00C6E1"/>
<path d="M214.316 23.7668V37.3988H236.3V50.0708H214.316V64.8548H239.18V78.0068H197.9V10.6148H239.18V23.7668H214.316ZM287.469 10.6148V23.7668H260.013V37.9748H280.557V50.7428H260.013V78.0068H243.597V10.6148H287.469Z" fill="#00C6E1"/>
<defs>
<linearGradient id="paint0_linear_45_36" x1="82.6507" y1="57.8262" x2="82.6507" y2="147.557" gradientUnits="userSpaceOnUse">
<stop stop-color="#00C6E1"/>
<stop offset="1" stop-color="#006198"/>
</linearGradient>
</defs>
</svg>
